<svg xmlns="http://www.w3.org/2000/svg" width="99.211" height="112.626" viewBox="0 0 99.211 112.626"><path d="M-733.946,51.827a4.6,4.6,0,0,1-3.261-1.351,4.613,4.613,0,0,1,0-6.523L-696.5,3.246A11.009,11.009,0,0,1-688.664,0a11.01,11.01,0,0,1,7.836,3.246L-640.7,43.374a4.613,4.613,0,0,1,0,6.523,4.614,4.614,0,0,1-6.523,0L-687.351,9.768a1.848,1.848,0,0,0-1.313-.544,1.849,1.849,0,0,0-1.313.544l-40.708,40.708A4.6,4.6,0,0,1-733.946,51.827Z" transform="translate(738.559)" fill="#217262"/><path d="M-639.432,136.342H-674.42a17.494,17.494,0,0,0-17.492,17.5v34.983a17.489,17.489,0,0,0,17.492,17.492h34.989a17.489,17.489,0,0,0,17.492-17.492V153.839A17.494,17.494,0,0,0-639.432,136.342Zm-35.8,24.26a7.263,7.263,0,0,1,7.264-7.264,7.264,7.264,0,0,1,7.264,7.264,7.263,7.263,0,0,1-7.264,7.264A7.263,7.263,0,0,1-675.233,160.6Zm3.592,28.612a2.291,2.291,0,0,1-1.626-.674,2.3,2.3,0,0,1,0-3.263l29.425-29.425a2.3,2.3,0,0,1,3.257,0,2.3,2.3,0,0,1,0,3.263L-670.01,188.54A2.294,2.294,0,0,1-671.642,189.214Zm27.54-.15a7.263,7.263,0,0,1-7.264-7.264,7.263,7.263,0,0,1,7.264-7.264,7.263,7.263,0,0,1,7.264,7.264A7.263,7.263,0,0,1-644.1,189.064Z" transform="translate(706.505 -93.687)" fill="#217262"/></svg>