<svg xmlns="http://www.w3.org/2000/svg" width="99.211" height="112.627" viewBox="0 0 99.211 112.627"><g transform="translate(0)"><path d="M-353.945,51.827a4.6,4.6,0,0,1-3.261-1.351,4.613,4.613,0,0,1,0-6.523L-316.5,3.246A11.009,11.009,0,0,1-308.663,0a11.009,11.009,0,0,1,7.836,3.246L-260.7,43.374a4.613,4.613,0,0,1,0,6.523,4.614,4.614,0,0,1-6.523,0L-307.35,9.768a1.849,1.849,0,0,0-1.313-.544,1.849,1.849,0,0,0-1.313.544l-40.708,40.708A4.6,4.6,0,0,1-353.945,51.827Z" transform="translate(358.558 0)" fill="#217262"/><path d="M-259.435,136.342h-34.989a17.5,17.5,0,0,0-17.492,17.5v34.983a17.492,17.492,0,0,0,17.492,17.492h34.989a17.489,17.489,0,0,0,17.492-17.492V153.839A17.494,17.494,0,0,0-259.435,136.342Zm-15.647,51.939c-.063,2.894-2.744,5.062-5.886,4.97a5.362,5.362,0,0,1-5.131-5.229c-.006-.68,0-1.361,0-2.081h3.615c0,.565-.023,1.084.006,1.6a1.975,1.975,0,0,0,1.868,2.029,1.9,1.9,0,0,0,1.851-2.116c.017-3.811.035-7.622-.012-11.433-.012-.824.19-1.251,1.043-1.228.871.023,1.735.064,2.669.1C-275.058,179.546-274.989,183.916-275.081,188.281Zm20.351-13.646a9.332,9.332,0,0,0-5.275-3.344,9.4,9.4,0,0,0-9.657,3.407,8.793,8.793,0,0,0-7.253-3.615,8.72,8.72,0,0,0-7.356,3.632c-.323-.363-.605-.709-.911-1.026a9.268,9.268,0,0,0-13.479.553,3.346,3.346,0,0,1-.415.392v-.594a.96.96,0,0,0,.15-.253q3.243-13.9,17.168-16.99c.975-.219,1.978-.311,3-.467,0-.646-.006-1.2,0-1.758a1.739,1.739,0,0,1,1.88-1.908,1.726,1.726,0,0,1,1.822,1.868c.012.611,0,1.216,0,1.827.824.121,1.5.208,2.179.323,7.091,1.251,12.534,4.883,15.9,11.311a49.808,49.808,0,0,1,2.243,6.047Z" transform="translate(326.507 -93.687)" fill="#217262"/></g></svg>