<svg xmlns="http://www.w3.org/2000/svg" width="99.211" height="112.624" viewBox="0 0 99.211 112.624"><g transform="translate(0 0)"><path d="M-1113.95,51.822a4.6,4.6,0,0,1-3.261-1.351,4.612,4.612,0,0,1,0-6.523L-1076.5,3.24a11.094,11.094,0,0,1,15.671,0l40.129,40.129a4.612,4.612,0,0,1,0,6.523,4.614,4.614,0,0,1-6.523,0l-40.129-40.129a1.859,1.859,0,0,0-2.626,0l-40.708,40.709A4.6,4.6,0,0,1-1113.95,51.822Z" transform="translate(1118.562 0)" fill="#217262"/><path d="M-1019.431,136.336h-34.989a17.489,17.489,0,0,0-17.492,17.491v34.989a17.489,17.489,0,0,0,17.492,17.491h34.989a17.493,17.493,0,0,0,17.492-17.491V153.827A17.493,17.493,0,0,0-1019.431,136.336Zm-17.468,10.838a8.4,8.4,0,0,1,8.4,8.4,8.4,8.4,0,0,1-8.4,8.4,8.4,8.4,0,0,1-8.4-8.4A8.4,8.4,0,0,1-1036.9,147.174Zm13.733,39.186a5.333,5.333,0,0,1-5.333,5.339h-17a5.338,5.338,0,0,1-5.339-5.339V171.734a5.342,5.342,0,0,1,5.339-5.339h17a5.337,5.337,0,0,1,5.333,5.339Z" transform="translate(1086.506 -93.684)" fill="#217262"/></g></svg>