<svg xmlns="http://www.w3.org/2000/svg" width="99.211" height="112.626" viewBox="0 0 99.211 112.626"><g transform="translate(0)"><path d="M26.054,51.827a4.612,4.612,0,0,1-3.261-7.874L63.5,3.246a11.082,11.082,0,0,1,15.672,0L119.3,43.374a4.612,4.612,0,0,1-6.523,6.523L72.649,9.768a1.857,1.857,0,0,0-2.626,0L29.315,50.476A4.6,4.6,0,0,1,26.054,51.827Z" transform="translate(-21.441 0)" fill="#217262"/><path d="M171.7,236.858a6.917,6.917,0,1,1-6.9-6.774A6.919,6.919,0,0,1,171.7,236.858Z" transform="translate(-115.186 -158.101)" fill="#217262"/><path d="M120.568,136.342H85.579a17.494,17.494,0,0,0-17.492,17.5v34.983a17.489,17.489,0,0,0,17.492,17.492h34.989a17.489,17.489,0,0,0,17.492-17.492V153.839A17.494,17.494,0,0,0,120.568,136.342Zm-2.762,37.831a.578.578,0,0,0,.231.548c1.24.957,2.473,1.931,3.707,2.9a1.049,1.049,0,0,1,.323,1.62l-3.667,6.365c-.473.819-.83.934-1.7.588-1.435-.588-2.882-1.164-4.318-1.758a.51.51,0,0,0-.525.069c-.928.559-1.862,1.107-2.808,1.632a.551.551,0,0,0-.334.456c-.213,1.551-.438,3.1-.657,4.652-.121.824-.415,1.1-1.24,1.1q-3.8.008-7.6,0c-.64,0-.986-.323-1.084-1.02-.225-1.551-.45-3.1-.652-4.652a.682.682,0,0,0-.415-.559q-1.375-.761-2.71-1.586a.562.562,0,0,0-.588-.075c-1.47.605-2.946,1.2-4.422,1.8a1.022,1.022,0,0,1-1.482-.513q-1.877-3.243-3.747-6.486a1.053,1.053,0,0,1,.317-1.626c1.234-.963,2.462-1.937,3.707-2.894a.562.562,0,0,0,.231-.542c-.017-1.072-.017-2.145.006-3.217a.537.537,0,0,0-.219-.513c-1.263-.974-2.508-1.966-3.765-2.946a1.02,1.02,0,0,1-.3-1.54q1.859-3.234,3.719-6.457c.438-.755.8-.882,1.614-.553q2.17.865,4.33,1.747a.562.562,0,0,0,.588-.058c.911-.559,1.833-1.1,2.773-1.614a.556.556,0,0,0,.346-.484c.213-1.551.438-3.1.663-4.652.115-.8.415-1.072,1.222-1.072q3.8-.008,7.6,0a1.018,1.018,0,0,1,1.113,1q.337,2.326.652,4.658a.66.66,0,0,0,.4.565c.923.5,1.822,1.032,2.71,1.586a.608.608,0,0,0,.623.075c1.47-.611,2.946-1.2,4.422-1.8a1.024,1.024,0,0,1,1.459.507q1.885,3.269,3.776,6.549a3.8,3.8,0,0,1,.225.536,1.172,1.172,0,0,1-.5.986c-1.257.975-2.508,1.96-3.77,2.929a.6.6,0,0,0-.248.576C117.835,172.057,117.83,173.112,117.807,174.173Z" transform="translate(-53.495 -93.687)" fill="#217262"/></g></svg>